<svg id="mermaid-1537245254784" width="100%" xmlns="http://www.w3.org/2000/svg" height="100%" viewBox="0 0 868.96875 325"><style>#mermaid-1537245254784 .label{font-family:trebuchet ms,verdana,arial;color:#333}#mermaid-1537245254784 .node circle,#mermaid-1537245254784 .node ellipse,#mermaid-1537245254784 .node polygon,#mermaid-1537245254784 .node rect{fill:#ececff;stroke:#9370db;stroke-width:1px}#mermaid-1537245254784 .node.clickable{cursor:pointer}#mermaid-1537245254784 .arrowheadPath{fill:#333}#mermaid-1537245254784 .edgePath .path{stroke:#333;stroke-width:1.5px}#mermaid-1537245254784 .edgeLabel{background-color:#e8e8e8}#mermaid-1537245254784 .cluster rect{fill:#ffffde!important;stroke:#aa3!important;stroke-width:1px!important}#mermaid-1537245254784 .cluster text{fill:#333}#mermaid-1537245254784 div.mermaidTooltip{position:absolute;text-align:center;max-width:200px;padding:2px;font-family:trebuchet ms,verdana,arial;font-size:12px;background:#ffffde;border:1px solid #aa3;border-radius:2px;pointer-events:none;z-index:100}#mermaid-1537245254784 .actor{stroke:#ccf;fill:#ececff}#mermaid-1537245254784 text.actor{fill:#000;stroke:none}#mermaid-1537245254784 .actor-line{stroke:grey}#mermaid-1537245254784 .messageLine0{marker-end:"url(#arrowhead)"}#mermaid-1537245254784 .messageLine0,#mermaid-1537245254784 .messageLine1{stroke-width:1.5;stroke-dasharray:"2 2";stroke:#333}#mermaid-1537245254784 #arrowhead{fill:#333}#mermaid-1537245254784 #crosshead path{fill:#333!important;stroke:#333!important}#mermaid-1537245254784 .messageText{fill:#333;stroke:none}#mermaid-1537245254784 .labelBox{stroke:#ccf;fill:#ececff}#mermaid-1537245254784 .labelText,#mermaid-1537245254784 .loopText{fill:#000;stroke:none}#mermaid-1537245254784 .loopLine{stroke-width:2;stroke-dasharray:"2 2";marker-end:"url(#arrowhead)";stroke:#ccf}#mermaid-1537245254784 .note{stroke:#aa3;fill:#fff5ad}#mermaid-1537245254784 .noteText{fill:#000;stroke:none;font-family:trebuchet ms,verdana,arial;font-size:14px}#mermaid-1537245254784 .section{stroke:none;opacity:.2}#mermaid-1537245254784 .section0{fill:rgba(102,102,255,.49)}#mermaid-1537245254784 .section2{fill:#fff400}#mermaid-1537245254784 .section1,#mermaid-1537245254784 .section3{fill:#fff;opacity:.2}#mermaid-1537245254784 .sectionTitle0,#mermaid-1537245254784 .sectionTitle1,#mermaid-1537245254784 .sectionTitle2,#mermaid-1537245254784 .sectionTitle3{fill:#333}#mermaid-1537245254784 .sectionTitle{text-anchor:start;font-size:11px;text-height:14px}#mermaid-1537245254784 .grid .tick{stroke:#d3d3d3;opacity:.3;shape-rendering:crispEdges}#mermaid-1537245254784 .grid path{stroke-width:0}#mermaid-1537245254784 .today{fill:none;stroke:red;stroke-width:2px}#mermaid-1537245254784 .task{stroke-width:2}#mermaid-1537245254784 .taskText{text-anchor:middle;font-size:11px}#mermaid-1537245254784 .taskTextOutsideRight{fill:#000;text-anchor:start;font-size:11px}#mermaid-1537245254784 .taskTextOutsideLeft{fill:#000;text-anchor:end;font-size:11px}#mermaid-1537245254784 .taskText0,#mermaid-1537245254784 .taskText1,#mermaid-1537245254784 .taskText2,#mermaid-1537245254784 .taskText3{fill:#fff}#mermaid-1537245254784 .task0,#mermaid-1537245254784 .task1,#mermaid-1537245254784 .task2,#mermaid-1537245254784 .task3{fill:#8a90dd;stroke:#534fbc}#mermaid-1537245254784 .taskTextOutside0,#mermaid-1537245254784 .taskTextOutside1,#mermaid-1537245254784 .taskTextOutside2,#mermaid-1537245254784 .taskTextOutside3{fill:#000}#mermaid-1537245254784 .active0,#mermaid-1537245254784 .active1,#mermaid-1537245254784 .active2,#mermaid-1537245254784 .active3{fill:#bfc7ff;stroke:#534fbc}#mermaid-1537245254784 .activeText0,#mermaid-1537245254784 .activeText1,#mermaid-1537245254784 .activeText2,#mermaid-1537245254784 .activeText3{fill:#000!important}#mermaid-1537245254784 .done0,#mermaid-1537245254784 .done1,#mermaid-1537245254784 .done2,#mermaid-1537245254784 .done3{stroke:grey;fill:#d3d3d3;stroke-width:2}#mermaid-1537245254784 .doneText0,#mermaid-1537245254784 .doneText1,#mermaid-1537245254784 .doneText2,#mermaid-1537245254784 .doneText3{fill:#000!important}#mermaid-1537245254784 .crit0,#mermaid-1537245254784 .crit1,#mermaid-1537245254784 .crit2,#mermaid-1537245254784 .crit3{stroke:#f88;fill:red;stroke-width:2}#mermaid-1537245254784 .activeCrit0,#mermaid-1537245254784 .activeCrit1,#mermaid-1537245254784 .activeCrit2,#mermaid-1537245254784 .activeCrit3{stroke:#f88;fill:#bfc7ff;stroke-width:2}#mermaid-1537245254784 .doneCrit0,#mermaid-1537245254784 .doneCrit1,#mermaid-1537245254784 .doneCrit2,#mermaid-1537245254784 .doneCrit3{stroke:#f88;fill:#d3d3d3;stroke-width:2;cursor:pointer;shape-rendering:crispEdges}#mermaid-1537245254784 .activeCritText0,#mermaid-1537245254784 .activeCritText1,#mermaid-1537245254784 .activeCritText2,#mermaid-1537245254784 .activeCritText3,#mermaid-1537245254784 .doneCritText0,#mermaid-1537245254784 .doneCritText1,#mermaid-1537245254784 .doneCritText2,#mermaid-1537245254784 .doneCritText3{fill:#000!important}#mermaid-1537245254784 .titleText{text-anchor:middle;font-size:18px;fill:#000}#mermaid-1537245254784 g.classGroup text{fill:#9370db;stroke:none;font-family:trebuchet ms,verdana,arial;font-size:10px}#mermaid-1537245254784 g.classGroup rect{fill:#ececff;stroke:#9370db}#mermaid-1537245254784 g.classGroup line{stroke:#9370db;stroke-width:1}#mermaid-1537245254784 .classLabel .box{stroke:none;stroke-width:0;fill:#ececff;opacity:.5}#mermaid-1537245254784 .classLabel .label{fill:#9370db;font-size:10px}#mermaid-1537245254784 .relation{stroke:#9370db;stroke-width:1;fill:none}#mermaid-1537245254784 #compositionEnd,#mermaid-1537245254784 #compositionStart{fill:#9370db;stroke:#9370db;stroke-width:1}#mermaid-1537245254784 #aggregationEnd,#mermaid-1537245254784 #aggregationStart{fill:#ececff;stroke:#9370db;stroke-width:1}#mermaid-1537245254784 #dependencyEnd,#mermaid-1537245254784 #dependencyStart,#mermaid-1537245254784 #extensionEnd,#mermaid-1537245254784 #extensionStart{fill:#9370db;stroke:#9370db;stroke-width:1}#mermaid-1537245254784 .branch-label,#mermaid-1537245254784 .commit-id,#mermaid-1537245254784 .commit-msg{fill:#d3d3d3;color:#d3d3d3}</style><style>#mermaid-1537245254784 {
    color: rgb(0, 0, 0);
    font: normal normal 400 normal 16px / normal "Times New Roman";
  }</style><g></g><defs><marker id="extensionStart" class="extension" refX="0" refY="7" markerWidth="190" markerHeight="240" orient="auto"><path d="M 1,7 L18,13 V 1 Z"></path></marker></defs><defs><marker id="extensionEnd" refX="19" refY="7" markerWidth="20" markerHeight="28" orient="auto"><path d="M 1,1 V 13 L18,7 Z"></path></marker></defs><defs><marker id="compositionStart" class="extension" refX="0" refY="7" markerWidth="190" markerHeight="240" orient="auto"><path d="M 18,7 L9,13 L1,7 L9,1 Z"></path></marker></defs><defs><marker id="compositionEnd" refX="19" refY="7" markerWidth="20" markerHeight="28" orient="auto"><path d="M 18,7 L9,13 L1,7 L9,1 Z"></path></marker></defs><defs><marker id="aggregationStart" class="extension" refX="0" refY="7" markerWidth="190" markerHeight="240" orient="auto"><path d="M 18,7 L9,13 L1,7 L9,1 Z"></path></marker></defs><defs><marker id="aggregationEnd" refX="19" refY="7" markerWidth="20" markerHeight="28" orient="auto"><path d="M 18,7 L9,13 L1,7 L9,1 Z"></path></marker></defs><defs><marker id="dependencyStart" class="extension" refX="0" refY="7" markerWidth="190" markerHeight="240" orient="auto"><path d="M 5,7 L9,13 L1,7 L9,1 Z"></path></marker></defs><defs><marker id="dependencyEnd" refX="19" refY="7" markerWidth="20" markerHeight="28" orient="auto"><path d="M 18,7 L9,13 L14,7 L9,1 Z"></path></marker></defs><g id="classId0" class="classGroup" transform="translate(52.1328125,165 )"><rect x="0" y="0" width="70.6875" height="45"></rect><text x="5" y="15">iFlyBehavior</text><line x1="0" y1="20" y2="20" x2="70.6875"></line><text x="5" y="30" fill="white" class="classText"></text><line x1="0" y1="25" y2="25" x2="70.6875"></line><text x="5" y="40" fill="white" class="classText"><tspan x="5">abstract fly()</tspan></text></g><g id="classId1" class="classGroup" transform="translate(0,260 )"><rect x="0" y="0" width="76.109375" height="45"></rect><text x="5" y="15">FlyWithWings</text><line x1="0" y1="20" y2="20" x2="76.109375"></line><text x="5" y="30" fill="white" class="classText"></text><line x1="0" y1="25" y2="25" x2="76.109375"></line><text x="5" y="40" fill="white" class="classText"><tspan x="5">fly()</tspan></text></g><g id="classId2" class="classGroup" transform="translate(126.109375,260 )"><rect x="0" y="0" width="60.734375" height="45"></rect><text x="5" y="15">FlyNoWay</text><line x1="0" y1="20" y2="20" x2="60.734375"></line><text x="5" y="30" fill="white" class="classText"></text><line x1="0" y1="25" y2="25" x2="60.734375"></line><text x="5" y="40" fill="white" class="classText"><tspan x="5">fly()</tspan></text></g><g id="classId3" class="classGroup" transform="translate(267.09375,165 )"><rect x="0" y="0" width="86.6875" height="45"></rect><text x="5" y="15">iQuackBehavior</text><line x1="0" y1="20" y2="20" x2="86.6875"></line><text x="5" y="30" fill="white" class="classText"></text><line x1="0" y1="25" y2="25" x2="86.6875"></line><text x="5" y="40" fill="white" class="classText"><tspan x="5">abstract quack()</tspan></text></g><g id="classId4" class="classGroup" transform="translate(236.84375,260 )"><rect x="0" y="0" width="48.34375" height="45"></rect><text x="5" y="15">Quack</text><line x1="0" y1="20" y2="20" x2="48.34375"></line><text x="5" y="30" fill="white" class="classText"></text><line x1="0" y1="25" y2="25" x2="48.34375"></line><text x="5" y="40" fill="white" class="classText"><tspan x="5">quack()</tspan></text></g><g id="classId5" class="classGroup" transform="translate(335.1875,260 )"><rect x="0" y="0" width="49.34375" height="45"></rect><text x="5" y="15">Squack</text><line x1="0" y1="20" y2="20" x2="49.34375"></line><text x="5" y="30" fill="white" class="classText"></text><line x1="0" y1="25" y2="25" x2="49.34375"></line><text x="5" y="40" fill="white" class="classText"><tspan x="5">quack()</tspan></text></g><g id="classId6" class="classGroup" transform="translate(434.53125,260 )"><rect x="0" y="0" width="67.125" height="45"></rect><text x="5" y="15">MuteQuack</text><line x1="0" y1="20" y2="20" x2="67.125"></line><text x="5" y="30" fill="white" class="classText"></text><line x1="0" y1="25" y2="25" x2="67.125"></line><text x="5" y="40" fill="white" class="classText"><tspan x="5">quack()</tspan></text></g><g id="classId7" class="classGroup" transform="translate(475.51171875,0 )"><rect x="0" y="0" width="155.1875" height="115"></rect><text x="5" y="15">Duck</text><line x1="0" y1="20" y2="20" x2="155.1875"></line><text x="5" y="30" fill="white" class="classText"><tspan x="5">iFlyBehavior flyBehavior</tspan><tspan x="5" dy="10">iQuackBehavior quackBehavior</tspan></text><line x1="0" y1="45" y2="45" x2="155.1875"></line><text x="5" y="60" fill="white" class="classText"><tspan x="5">performQuack()</tspan><tspan x="5" dy="10">performFly()</tspan><tspan x="5" dy="10">swim()</tspan><tspan x="5" dy="10">abstract display()</tspan><tspan x="5" dy="10">setQuackBehavior()</tspan><tspan x="5" dy="10">setFlyBehiavor()</tspan></text></g><g id="classId8" class="classGroup" transform="translate(403.78125,165 )"><rect x="0" y="0" width="71.5625" height="45"></rect><text x="5" y="15">MallardDuck</text><line x1="0" y1="20" y2="20" x2="71.5625"></line><text x="5" y="30" fill="white" class="classText"></text><line x1="0" y1="25" y2="25" x2="71.5625"></line><text x="5" y="40" fill="white" class="classText"><tspan x="5">display()</tspan></text></g><g id="classId9" class="classGroup" transform="translate(525.34375,165 )"><rect x="0" y="0" width="84.921875" height="45"></rect><text x="5" y="15">ReadheadDuck</text><line x1="0" y1="20" y2="20" x2="84.921875"></line><text x="5" y="30" fill="white" class="classText"></text><line x1="0" y1="25" y2="25" x2="84.921875"></line><text x="5" y="40" fill="white" class="classText"><tspan x="5">display()</tspan></text></g><g id="classId10" class="classGroup" transform="translate(660.265625,165 )"><rect x="0" y="0" width="71.578125" height="45"></rect><text x="5" y="15">RubberDuck</text><line x1="0" y1="20" y2="20" x2="71.578125"></line><text x="5" y="30" fill="white" class="classText"></text><line x1="0" y1="25" y2="25" x2="71.578125"></line><text x="5" y="40" fill="white" class="classText"><tspan x="5">display()</tspan></text></g><g id="classId11" class="classGroup" transform="translate(781.84375,165 )"><rect x="0" y="0" width="67.125" height="45"></rect><text x="5" y="15">DecoyDuck</text><line x1="0" y1="20" y2="20" x2="67.125"></line><text x="5" y="30" fill="white" class="classText"></text><line x1="0" y1="25" y2="25" x2="67.125"></line><text x="5" y="40" fill="white" class="classText"><tspan x="5">display()</tspan></text></g><path d="M64.06620065789474,210L59.73094846491228,214.16666666666666C55.39569627192983,218.33333333333334,46.72519188596491,226.66666666666666,42.38993969298246,235C38.0546875,243.33333333333334,38.0546875,251.66666666666666,38.0546875,255.83333333333334L38.0546875,260" id="edge0" class="relation" marker-start="url(#dependencyStart)"></path><g class="classLabel"><rect class="box" x="26.375" y="237" width="23.328125" height="15"></rect><text class="label" x="38.0546875" y="247.5" fill="red" text-anchor="middle">impl</text></g><path d="M120.16077302631578,210L126.21340460526316,214.16666666666666C132.26603618421052,218.33333333333334,144.37129934210526,226.66666666666666,150.42393092105263,235C156.4765625,243.33333333333334,156.4765625,251.66666666666666,156.4765625,255.83333333333334L156.4765625,260" id="edge1" class="relation" marker-start="url(#dependencyStart)"></path><g class="classLabel"><rect class="box" x="144.796875" y="237" width="23.328125" height="15"></rect><text class="label" x="156.4765625" y="247.5" fill="red" text-anchor="middle">impl</text></g><path d="M287.02713815789474,210L282.6918859649123,214.16666666666666C278.3566337719298,218.33333333333334,269.68612938596493,226.66666666666666,265.35087719298247,235C261.015625,243.33333333333334,261.015625,251.66666666666666,261.015625,255.83333333333334L261.015625,260" id="edge2" class="relation" marker-start="url(#dependencyStart)"></path><g class="classLabel"><rect class="box" x="249.34375" y="237" width="23.328125" height="15"></rect><text class="label" x="261.015625" y="247.5" fill="red" text-anchor="middle">impl</text></g><path d="M333.84786184210526,210L338.1831140350877,214.16666666666666C342.51836622807014,218.33333333333334,351.18887061403507,226.66666666666666,355.5241228070175,235C359.859375,243.33333333333334,359.859375,251.66666666666666,359.859375,255.83333333333334L359.859375,260" id="edge3" class="relation" marker-start="url(#dependencyStart)"></path><g class="classLabel"><rect class="box" x="348.1875" y="237" width="23.328125" height="15"></rect><text class="label" x="359.859375" y="247.5" fill="red" text-anchor="middle">impl</text></g><path d="M353.78125,200.5589692765114L372.8333333333333,206.2991410637595C391.8854166666667,212.0393128510076,429.9895833333333,223.51965642550377,449.0416666666667,233.42649487941856C468.09375,243.33333333333334,468.09375,251.66666666666666,468.09375,255.83333333333334L468.09375,260" id="edge4" class="relation" marker-start="url(#dependencyStart)"></path><g class="classLabel"><rect class="box" x="456.421875" y="237" width="23.328125" height="15"></rect><text class="label" x="468.09375" y="247.5" fill="red" text-anchor="middle">impl</text></g><path d="M475.51171875,113.87939931881516L469.5201822916667,118.23283276567929C463.5286458333333,122.58626621254344,451.5455729166667,131.2931331062717,445.5540364583333,139.81323321980253C439.5625,148.33333333333334,439.5625,156.66666666666666,439.5625,160.83333333333334L439.5625,165" id="edge5" class="relation" marker-start="url(#dependencyStart)"></path><g class="classLabel"><rect class="box" x="430.375" y="142" width="18.34375" height="15"></rect><text class="label" x="439.5625" y="152.5" fill="red" text-anchor="middle">inh</text></g><path d="M563.3503787878788,115L564.0927635732323,119.16666666666667C564.8351483585858,123.33333333333333,566.319917929293,131.66666666666666,567.0623027146465,140C567.8046875,148.33333333333334,567.8046875,156.66666666666666,567.8046875,160.83333333333334L567.8046875,165" id="edge6" class="relation" marker-start="url(#dependencyStart)"></path><g class="classLabel"><rect class="box" x="558.625" y="142" width="18.34375" height="15"></rect><text class="label" x="567.8046875" y="152.5" fill="red" text-anchor="middle">inh</text></g><path d="M630.69921875,102.28152753108348L641.591796875,108.56793960923623C652.484375,114.854351687389,674.26953125,127.4271758436945,685.162109375,137.8802545885139C696.0546875,148.33333333333334,696.0546875,156.66666666666666,696.0546875,160.83333333333334L696.0546875,165" id="edge7" class="relation" marker-start="url(#dependencyStart)"></path><g class="classLabel"><rect class="box" x="686.875" y="142" width="18.34375" height="15"></rect><text class="label" x="696.0546875" y="152.5" fill="red" text-anchor="middle">inh</text></g><path d="M630.69921875,81.90512889246303L661.4837239583334,91.58760741038584C692.2682291666666,101.27008592830869,753.8372395833334,120.63504296415435,784.6217447916666,134.48418814874384C815.40625,148.33333333333334,815.40625,156.66666666666666,815.40625,160.83333333333334L815.40625,165" id="edge8" class="relation" marker-start="url(#dependencyStart)"></path><g class="classLabel"><rect class="box" x="806.21875" y="142" width="18.34375" height="15"></rect><text class="label" x="815.40625" y="152.5" fill="red" text-anchor="middle">inh</text></g><path d="M475.51171875,71.24803902651823L410.8391927083333,82.70669918876519C346.1666666666667,94.16535935101216,216.82161458333334,117.08267967550607,152.14908854166666,132.7080065044197C87.4765625,148.33333333333334,87.4765625,156.66666666666666,87.4765625,160.83333333333334L87.4765625,165" id="edge9" class="relation" marker-end="url(#dependencyEnd)"></path><g class="classLabel"><rect class="box" x="76.90625" y="142" width="21.109375" height="15"></rect><text class="label" x="87.4765625" y="152.5" fill="red" text-anchor="middle">has</text></g><path d="M475.51171875,83.87960175780307L447.9993489583333,93.23300146483591C420.4869791666667,102.58640117186872,365.4622395833333,121.29320058593436,337.9498697916667,134.81326695963386C310.4375,148.33333333333334,310.4375,156.66666666666666,310.4375,160.83333333333334L310.4375,165" id="edge10" class="relation" marker-end="url(#dependencyEnd)"></path><g class="classLabel"><rect class="box" x="299.875" y="142" width="21.109375" height="15"></rect><text class="label" x="310.4375" y="152.5" fill="red" text-anchor="middle">has</text></g></svg>