<svg id="mermaid-1537236496876" width="100%" xmlns="http://www.w3.org/2000/svg" height="100%" viewBox="0 0 491.46875 214.15625"><style>#mermaid-1537236496876 .label{font-family:trebuchet ms,verdana,arial;color:#333}#mermaid-1537236496876 .node circle,#mermaid-1537236496876 .node ellipse,#mermaid-1537236496876 .node polygon,#mermaid-1537236496876 .node rect{fill:#ececff;stroke:#9370db;stroke-width:1px}#mermaid-1537236496876 .node.clickable{cursor:pointer}#mermaid-1537236496876 .arrowheadPath{fill:#333}#mermaid-1537236496876 .edgePath .path{stroke:#333;stroke-width:1.5px}#mermaid-1537236496876 .edgeLabel{background-color:#e8e8e8}#mermaid-1537236496876 .cluster rect{fill:#ffffde!important;stroke:#aa3!important;stroke-width:1px!important}#mermaid-1537236496876 .cluster text{fill:#333}#mermaid-1537236496876 div.mermaidTooltip{position:absolute;text-align:center;max-width:200px;padding:2px;font-family:trebuchet ms,verdana,arial;font-size:12px;background:#ffffde;border:1px solid #aa3;border-radius:2px;pointer-events:none;z-index:100}#mermaid-1537236496876 .actor{stroke:#ccf;fill:#ececff}#mermaid-1537236496876 text.actor{fill:#000;stroke:none}#mermaid-1537236496876 .actor-line{stroke:grey}#mermaid-1537236496876 .messageLine0{marker-end:"url(#arrowhead)"}#mermaid-1537236496876 .messageLine0,#mermaid-1537236496876 .messageLine1{stroke-width:1.5;stroke-dasharray:"2 2";stroke:#333}#mermaid-1537236496876 #arrowhead{fill:#333}#mermaid-1537236496876 #crosshead path{fill:#333!important;stroke:#333!important}#mermaid-1537236496876 .messageText{fill:#333;stroke:none}#mermaid-1537236496876 .labelBox{stroke:#ccf;fill:#ececff}#mermaid-1537236496876 .labelText,#mermaid-1537236496876 .loopText{fill:#000;stroke:none}#mermaid-1537236496876 .loopLine{stroke-width:2;stroke-dasharray:"2 2";marker-end:"url(#arrowhead)";stroke:#ccf}#mermaid-1537236496876 .note{stroke:#aa3;fill:#fff5ad}#mermaid-1537236496876 .noteText{fill:#000;stroke:none;font-family:trebuchet ms,verdana,arial;font-size:14px}#mermaid-1537236496876 .section{stroke:none;opacity:.2}#mermaid-1537236496876 .section0{fill:rgba(102,102,255,.49)}#mermaid-1537236496876 .section2{fill:#fff400}#mermaid-1537236496876 .section1,#mermaid-1537236496876 .section3{fill:#fff;opacity:.2}#mermaid-1537236496876 .sectionTitle0,#mermaid-1537236496876 .sectionTitle1,#mermaid-1537236496876 .sectionTitle2,#mermaid-1537236496876 .sectionTitle3{fill:#333}#mermaid-1537236496876 .sectionTitle{text-anchor:start;font-size:11px;text-height:14px}#mermaid-1537236496876 .grid .tick{stroke:#d3d3d3;opacity:.3;shape-rendering:crispEdges}#mermaid-1537236496876 .grid path{stroke-width:0}#mermaid-1537236496876 .today{fill:none;stroke:red;stroke-width:2px}#mermaid-1537236496876 .task{stroke-width:2}#mermaid-1537236496876 .taskText{text-anchor:middle;font-size:11px}#mermaid-1537236496876 .taskTextOutsideRight{fill:#000;text-anchor:start;font-size:11px}#mermaid-1537236496876 .taskTextOutsideLeft{fill:#000;text-anchor:end;font-size:11px}#mermaid-1537236496876 .taskText0,#mermaid-1537236496876 .taskText1,#mermaid-1537236496876 .taskText2,#mermaid-1537236496876 .taskText3{fill:#fff}#mermaid-1537236496876 .task0,#mermaid-1537236496876 .task1,#mermaid-1537236496876 .task2,#mermaid-1537236496876 .task3{fill:#8a90dd;stroke:#534fbc}#mermaid-1537236496876 .taskTextOutside0,#mermaid-1537236496876 .taskTextOutside1,#mermaid-1537236496876 .taskTextOutside2,#mermaid-1537236496876 .taskTextOutside3{fill:#000}#mermaid-1537236496876 .active0,#mermaid-1537236496876 .active1,#mermaid-1537236496876 .active2,#mermaid-1537236496876 .active3{fill:#bfc7ff;stroke:#534fbc}#mermaid-1537236496876 .activeText0,#mermaid-1537236496876 .activeText1,#mermaid-1537236496876 .activeText2,#mermaid-1537236496876 .activeText3{fill:#000!important}#mermaid-1537236496876 .done0,#mermaid-1537236496876 .done1,#mermaid-1537236496876 .done2,#mermaid-1537236496876 .done3{stroke:grey;fill:#d3d3d3;stroke-width:2}#mermaid-1537236496876 .doneText0,#mermaid-1537236496876 .doneText1,#mermaid-1537236496876 .doneText2,#mermaid-1537236496876 .doneText3{fill:#000!important}#mermaid-1537236496876 .crit0,#mermaid-1537236496876 .crit1,#mermaid-1537236496876 .crit2,#mermaid-1537236496876 .crit3{stroke:#f88;fill:red;stroke-width:2}#mermaid-1537236496876 .activeCrit0,#mermaid-1537236496876 .activeCrit1,#mermaid-1537236496876 .activeCrit2,#mermaid-1537236496876 .activeCrit3{stroke:#f88;fill:#bfc7ff;stroke-width:2}#mermaid-1537236496876 .doneCrit0,#mermaid-1537236496876 .doneCrit1,#mermaid-1537236496876 .doneCrit2,#mermaid-1537236496876 .doneCrit3{stroke:#f88;fill:#d3d3d3;stroke-width:2;cursor:pointer;shape-rendering:crispEdges}#mermaid-1537236496876 .activeCritText0,#mermaid-1537236496876 .activeCritText1,#mermaid-1537236496876 .activeCritText2,#mermaid-1537236496876 .activeCritText3,#mermaid-1537236496876 .doneCritText0,#mermaid-1537236496876 .doneCritText1,#mermaid-1537236496876 .doneCritText2,#mermaid-1537236496876 .doneCritText3{fill:#000!important}#mermaid-1537236496876 .titleText{text-anchor:middle;font-size:18px;fill:#000}#mermaid-1537236496876 g.classGroup text{fill:#9370db;stroke:none;font-family:trebuchet ms,verdana,arial;font-size:10px}#mermaid-1537236496876 g.classGroup rect{fill:#ececff;stroke:#9370db}#mermaid-1537236496876 g.classGroup line{stroke:#9370db;stroke-width:1}#mermaid-1537236496876 .classLabel .box{stroke:none;stroke-width:0;fill:#ececff;opacity:.5}#mermaid-1537236496876 .classLabel .label{fill:#9370db;font-size:10px}#mermaid-1537236496876 .relation{stroke:#9370db;stroke-width:1;fill:none}#mermaid-1537236496876 #compositionEnd,#mermaid-1537236496876 #compositionStart{fill:#9370db;stroke:#9370db;stroke-width:1}#mermaid-1537236496876 #aggregationEnd,#mermaid-1537236496876 #aggregationStart{fill:#ececff;stroke:#9370db;stroke-width:1}#mermaid-1537236496876 #dependencyEnd,#mermaid-1537236496876 #dependencyStart,#mermaid-1537236496876 #extensionEnd,#mermaid-1537236496876 #extensionStart{fill:#9370db;stroke:#9370db;stroke-width:1}#mermaid-1537236496876 .branch-label,#mermaid-1537236496876 .commit-id,#mermaid-1537236496876 .commit-msg{fill:#d3d3d3;color:#d3d3d3}</style><style>#mermaid-1537236496876 {
    color: rgb(0, 0, 0);
    font: normal normal 400 normal 16px / normal "Times New Roman";
  }</style><g></g><defs><marker id="extensionStart" class="extension" refX="0" refY="7" markerWidth="190" markerHeight="240" orient="auto"><path d="M 1,7 L18,13 V 1 Z"></path></marker></defs><defs><marker id="extensionEnd" refX="19" refY="7" markerWidth="20" markerHeight="28" orient="auto"><path d="M 1,1 V 13 L18,7 Z"></path></marker></defs><defs><marker id="compositionStart" class="extension" refX="0" refY="7" markerWidth="190" markerHeight="240" orient="auto"><path d="M 18,7 L9,13 L1,7 L9,1 Z"></path></marker></defs><defs><marker id="compositionEnd" refX="19" refY="7" markerWidth="20" markerHeight="28" orient="auto"><path d="M 18,7 L9,13 L1,7 L9,1 Z"></path></marker></defs><defs><marker id="aggregationStart" class="extension" refX="0" refY="7" markerWidth="190" markerHeight="240" orient="auto"><path d="M 18,7 L9,13 L1,7 L9,1 Z"></path></marker></defs><defs><marker id="aggregationEnd" refX="19" refY="7" markerWidth="20" markerHeight="28" orient="auto"><path d="M 18,7 L9,13 L1,7 L9,1 Z"></path></marker></defs><defs><marker id="dependencyStart" class="extension" refX="0" refY="7" markerWidth="190" markerHeight="240" orient="auto"><path d="M 5,7 L9,13 L1,7 L9,1 Z"></path></marker></defs><defs><marker id="dependencyEnd" refX="19" refY="7" markerWidth="20" markerHeight="28" orient="auto"><path d="M 18,7 L9,13 L14,7 L9,1 Z"></path></marker></defs><g id="classId0" class="classGroup" transform="translate(180.125,0 )"><rect x="0" y="0" width="93.421875" height="77.078125"></rect><text x="5" y="15">Duck</text><line x1="0" y1="21" y2="21" x2="93.421875"></line><text x="5" y="31" fill="white" class="classText"></text><line x1="0" y1="26" y2="26" x2="93.421875"></line><text x="5" y="41" fill="white" class="classText"><tspan x="5">quack()</tspan><tspan x="5" dy="10">swim()</tspan><tspan x="5" dy="10">abstract display()</tspan><tspan x="5" dy="10">abstract fly()</tspan></text></g><g id="classId1" class="classGroup" transform="translate(36.875,127.078125 )"><rect x="0" y="0" width="69.546875" height="67.078125"></rect><text x="5" y="15">MallardDuck</text><line x1="0" y1="21" y2="21" x2="69.546875"></line><text x="5" y="31" fill="white" class="classText"></text><line x1="0" y1="26" y2="26" x2="69.546875"></line><text x="5" y="41" fill="white" class="classText"><tspan x="5">display()</tspan><tspan x="5" dy="10">fly()</tspan><tspan x="5" dy="10">quack()</tspan></text></g><g id="classId2" class="classGroup" transform="translate(156.421875,127.078125 )"><rect x="0" y="0" width="75.171875" height="67.078125"></rect><text x="5" y="15">RedheadDuck</text><line x1="0" y1="21" y2="21" x2="75.171875"></line><text x="5" y="31" fill="white" class="classText"></text><line x1="0" y1="26" y2="26" x2="75.171875"></line><text x="5" y="41" fill="white" class="classText"><tspan x="5">display()</tspan><tspan x="5" dy="10">fly()</tspan><tspan x="5" dy="10">quack()</tspan></text></g><g id="classId3" class="classGroup" transform="translate(401.5625,132.078125 )"><rect x="0" y="0" width="68.359375" height="57.078125"></rect><text x="5" y="15">RubberDuck</text><line x1="0" y1="21" y2="21" x2="68.359375"></line><text x="5" y="31" fill="white" class="classText"></text><line x1="0" y1="26" y2="26" x2="68.359375"></line><text x="5" y="41" fill="white" class="classText"><tspan x="5">display()</tspan><tspan x="5" dy="10">quack()</tspan></text></g><g id="classId4" class="classGroup" transform="translate(281.59375,137.0546875 )"><rect x="0" y="0" width="63.421875" height="47.125"></rect><text x="5" y="15">DecoyDuck</text><line x1="0" y1="21.046875" y2="21.046875" x2="63.421875"></line><text x="5" y="31.046875" fill="white" class="classText"></text><line x1="0" y1="26.046875" y2="26.046875" x2="63.421875"></line><text x="5" y="41.046875" fill="white" class="classText"><tspan x="5">display()</tspan></text></g><g id="classId5" class="classGroup" transform="translate(0,14.9765625 )"><rect x="0" y="0" width="50.203125" height="47.125"></rect><text x="5" y="15">iFlyable</text><line x1="0" y1="21.046875" y2="21.046875" x2="50.203125"></line><text x="5" y="31.046875" fill="white" class="classText"></text><line x1="0" y1="26.046875" y2="26.046875" x2="50.203125"></line><text x="5" y="41.046875" fill="white" class="classText"><tspan x="5">fly()</tspan></text></g><g id="classId6" class="classGroup" transform="translate(406.921875,15 )"><rect x="0" y="0" width="64.546875" height="47.078125"></rect><text x="5" y="15">iQuackable</text><line x1="0" y1="21" y2="21" x2="64.546875"></line><text x="5" y="31" fill="white" class="classText"></text><line x1="0" y1="26" y2="26" x2="64.546875"></line><text x="5" y="41" fill="white" class="classText"><tspan x="5">quack()</tspan></text></g><path d="M180.125,63.10262481006724L167.77213541666666,69.59854150838937C155.41927083333334,76.0944582067115,130.71354166666666,89.08629160335575,115.91506117515236,99.74887496834454C101.11658068363806,110.41145833333333,96.22534886727613,118.74479166666667,93.77973295909516,122.91145833333333L91.33411705091419,127.078125" id="edge0" class="relation" marker-start="url(#dependencyStart)"></path><g class="classLabel"><rect class="box" x="89.28125" y="103.078125" width="18.765625" height="16"></rect><text class="label" x="98.6709647754571" y="114.578125" fill="red" text-anchor="middle">inh</text></g><path d="M227.7647037916513,77.078125L227.86511774304276,81.24479166666667C227.9655316944342,85.41145833333333,228.1663595972171,93.74479166666667,225.8211576404276,102.078125C223.47595568363806,110.41145833333333,218.58472386727613,118.74479166666667,216.13910795909518,122.91145833333333L213.6934920509142,127.078125" id="edge1" class="relation" marker-start="url(#dependencyStart)"></path><g class="classLabel"><rect class="box" x="211.640625" y="103.078125" width="18.765625" height="16"></rect><text class="label" x="221.0303397754571" y="114.578125" fill="red" text-anchor="middle">inh</text></g><path d="M263.94394173429237,77.078125L267.95588894524366,81.24479166666667C271.9678361561949,85.41145833333333,279.9917305780975,93.74479166666667,302.9281569557154,105.41059220587198C325.8645833333333,117.07639274507729,363.7135416666667,132.0746604901546,382.6380208333333,139.57379436269323L401.5625,147.0729282352319" id="edge2" class="relation" marker-start="url(#dependencyStart)"></path><g class="classLabel"><rect class="box" x="335.390625" y="113.0625" width="18.765625" height="16"></rect><text class="label" x="344.7890625" y="124.57552661761595" fill="red" text-anchor="middle">inh</text></g><path d="M273.546875,63.10262481006724L285.8997395833333,69.59854150838937C298.2526041666667,76.0944582067115,322.9583333333333,89.08629160335575,331.8896284101272,101.41163538501121C340.8209234869211,113.73697916666667,333.97778447384223,125.39583333333333,330.55621496730276,131.22526041666666L327.13464546076335,137.0546875" id="edge3" class="relation" marker-start="url(#dependencyStart)"></path><g class="classLabel"><rect class="box" x="328" y="108.0625" width="18.765625" height="16"></rect><text class="label" x="337.39935398038165" y="119.56640625" fill="red" text-anchor="middle">inh</text></g><path d="M25.1015625,62.1015625L25.1015625,68.76432291666667C25.1015625,75.42708333333333,25.1015625,88.75260416666667,28.41465471940478,99.58203125C31.727746938809556,110.41145833333333,38.35393137761911,118.74479166666667,41.66702359702389,122.91145833333333L44.980115816428665,127.078125" id="edge4" class="relation" marker-start="url(#dependencyStart)"></path><g class="classLabel"><rect class="box" x="22.703125" y="103.078125" width="24.671875" height="16.046875"></rect><text class="label" x="35.04083915821433" y="114.578125" fill="red" text-anchor="middle">impl</text></g><path d="M47.68772381808681,62.1015625L54.074405265072336,68.76432291666667C60.46108671205787,75.42708333333333,73.23444960602893,88.75260416666667,91.35680813634781,101.77643434500987C109.47916666666667,114.8002645233531,132.95052083333334,127.5224040467062,144.68619791666666,133.88347380838275L156.421875,140.2445435700593" id="edge5" class="relation" marker-start="url(#dependencyStart)"></path><g class="classLabel"><rect class="box" x="108.875" y="109.65625" width="24.671875" height="16.046875"></rect><text class="label" x="121.21484375" y="121.16133428502965" fill="red" text-anchor="middle">impl</text></g><path d="M415.30314959117175,62.078125L408.5364788259765,68.74479166666667C401.76980806078114,75.41145833333333,388.2364665303906,88.74479166666667,336.75625409852864,104.04847639701649C285.2760416666667,119.3521611273663,195.84895833333334,136.62619725473263,151.13541666666666,145.26321531841577L106.421875,153.90023338209895" id="edge6" class="relation" marker-start="url(#dependencyStart)"></path><g class="classLabel"><rect class="box" x="228.21875" y="116.484375" width="24.671875" height="16.046875"></rect><text class="label" x="240.5625" y="127.98917919104947" fill="red" text-anchor="middle">impl</text></g><path d="M422.71246964527234,62.078125L418.04424553772697,68.74479166666667C413.37602143018154,75.41145833333333,404.0395732150908,88.74479166666667,372.18645327421206,103.34078312134245C340.3333333333333,117.93677457601827,285.9635416666667,133.79542415203653,258.7786458333333,141.72474894004566L231.59375,149.6540737280548" id="edge7" class="relation" marker-start="url(#dependencyStart)"></path><g class="classLabel"><rect class="box" x="300.796875" y="114.359375" width="24.671875" height="16.046875"></rect><text class="label" x="313.1484375" y="125.8660993640274" fill="red" text-anchor="middle">impl</text></g><path d="M442.8999725270503,62.078125L443.9491958558753,68.74479166666667C444.9984191847002,75.41145833333333,447.0968658423501,88.74479166666667,446.9970167035386,100.41145833333333C446.8971675647271,112.078125,444.59902262945417,122.078125,443.4499501618177,127.078125L442.3008776941812,132.078125" id="edge8" class="relation" marker-start="url(#dependencyStart)"></path><g class="classLabel"><rect class="box" x="433.40625" y="105.578125" width="24.671875" height="16.046875"></rect><text class="label" x="445.74809509709064" y="117.078125" fill="red" text-anchor="middle">impl</text></g></svg>